<?xml version="1.0" encoding="utf-8"?>
<!DOCTYPE svg PUBLIC "-//W3C//DTD SVG 1.0//EN" "http://www.w3.org/TR/2001/REC-SVG-20010904/DTD/svg10.dtd">
<svg version="1.0" xmlns="http://www.w3.org/2000/svg" width="32px" height="32px" viewBox="0 0 350 350" preserveAspectRatio="xMidYMid meet">
 <g fill="#29414a">
  <path d="M172.2 347 c-7.1 -2.9 -29.2 -20.1 -43.6 -34 -32.3 -31.2 -55.9 -71.3 -69.2 -117.3 -4.4 -15.3 -8 -33.3 -9.3 -46.4 -0.6 -5.6 -1.1 -35.1 -1.1 -65.4 -0.1 -52 0 -55.4 1.7 -57.1 2.3 -2.2 115.1 -23.9 125.3 -24 3.6 -0.1 12 1.1 19 2.6 6.9 1.5 32.6 6.5 57.1 11.1 24.6 4.5 45.6 8.8 46.8 9.5 3.4 1.8 3.8 4.4 3 20 -0.3 8 -0.5 28.3 -0.2 45.3 0.7 51.4 -3 81.1 -14.3 115.7 -16.6 50.6 -49 96.1 -90.4 127.2 -16.7 12.5 -20.5 14.4 -24.8 12.8z m9.7 -28.2 c63.5 -47.4 100 -123.3 100.1 -208 0 -15.1 0 -15.1 -11.7 -18.8 -57.7 -18.5 -118.1 -19.6 -179.3 -3.3 -16.1 4.3 -20.7 6.4 -21.6 9.8 -0.3 1.4 -0.4 12.8 -0.1 25.3 0.3 17.2 1 25.6 2.6 34.5 8.4 46.3 26 86 52.3 118.5 13 16.1 46 46.2 50.7 46.2 0.8 0 3.9 -1.9 7 -4.2z m-100.6 -250.8 c27.3 -7.8 53.2 -11.7 83.2 -12.7 18.4 -0.6 41.5 0.6 57 2.8 21.8 3.1 54.1 11 69.5 16.8 3 1.1 5.5 1.9 5.6 1.8 0.1 -0.1 0.4 -10.2 0.5 -22.5 0.2 -15.6 -0.1 -22.6 -0.9 -23.4 -1 -1 -15.6 -4 -78.7 -15.8 -11.5 -2.2 -25.5 -4.9 -31 -6.1 l-10 -2.1 -59.5 11.2 c-32.7 6.1 -60.5 11.8 -61.7 12.6 -2.3 1.4 -2.3 1.7 -2.3 23.9 l0 22.4 7.3 -2.5 c3.9 -1.4 13.4 -4.3 21 -6.4z"/>
  <path d="M165.7 271.3 c-0.4 -0.3 -0.7 -2.5 -0.7 -4.8 0 -3.4 0.6 -4.7 3.6 -7.6 3.3 -3.1 11.4 -14 11.4 -15.3 0 -0.9 -6 0.5 -13.9 3.1 -8 2.7 -14 2.6 -21 -0.3 -6.4 -2.7 -9.1 -6.1 -9.1 -11.5 l0 -4.7 5.3 -1.3 c2.8 -0.7 8.9 -1.3 13.5 -1.4 6.1 -0.1 8.6 -0.5 9.3 -1.5 0.5 -0.8 0.9 -5.8 0.9 -11.1 0 -9 -0.1 -9.7 -2.6 -12 -1.4 -1.3 -4.8 -5.2 -7.6 -8.6 -3.7 -4.7 -5.6 -6.3 -7.5 -6.3 -2.3 0 -2.4 0.3 -1.8 3.3 0.8 3.5 2 5.5 4.8 7.5 2.8 2.1 2.3 10.3 -1 15.3 -2.4 3.7 -2.9 4 -6.6 3.7 l-4 -0.3 -4.7 -11 c-5.6 -13.2 -7 -18.5 -7 -26.3 0 -6.9 0.9 -8.1 7.5 -9.3 2.5 -0.5 6.8 -1.8 9.6 -3 4.6 -2 4.9 -2.4 3 -3.1 -1.2 -0.4 -3.1 -2.4 -4.3 -4.4 l-2.1 -3.6 -6.6 6.6 c-6.3 6.3 -6.9 6.6 -11.4 6.6 -2.8 0 -6.4 -0.8 -8.7 -2 -3.5 -1.8 -4 -2.5 -4 -5.5 0 -1.9 0.4 -3.5 0.8 -3.5 0.5 0 6.6 -5.2 13.7 -11.5 12.5 -11.2 12.9 -11.5 17.5 -11.5 4.6 0 5 0.3 10.9 6.5 3.6 3.9 6.1 7.5 6.1 8.8 0.1 4.3 1.8 -0.1 6.1 -16.1 0.6 -2.2 -6 -3.8 -13.6 -3.4 -8.4 0.5 -9.6 -0.4 -10.2 -7.6 -0.6 -6.8 1.1 -9.3 7.3 -10.7 2.8 -0.6 7.3 -2.4 10 -4 2.7 -1.6 7 -3.9 9.6 -5.2 3.2 -1.6 5 -3.2 5.4 -4.8 0.5 -2.1 1.2 -2.5 4.5 -2.5 3.3 0 4.5 0.7 7.9 4.4 2.2 2.4 6.5 5.7 9.5 7.2 4.9 2.6 5.5 3.3 5.5 6 0 1.7 0.6 3.7 1.4 4.3 0.8 0.7 1.7 3.1 2 5.4 0.3 2.3 0.8 6.1 1.2 8.5 0.5 3.6 0.4 4.2 -1.2 4.3 -1.7 0 -1.7 0.2 0.4 1.6 1.5 1.1 2.2 2.5 2.2 5 0 2.6 -0.5 3.6 -2.2 4.3 -1.3 0.5 -1.7 0.9 -1 0.9 0.7 0.1 1.2 1.6 1.2 4.1 0 2.5 -0.5 4 -1.2 4 -0.7 0 -0.5 0.5 0.5 1.1 1.1 0.6 1.7 2.2 1.7 4.4 0 3.3 -0.2 3.5 -3.5 3.5 -3.1 0 -3.5 0.3 -3.5 2.5 0 2.1 -0.5 2.5 -3 2.5 -1.6 0 -3 0.4 -3 0.8 0 1.3 7.1 7.6 14.2 12.6 3.8 2.6 7.9 6.4 9.3 8.4 l2.5 3.7 0.1 -5.5 c0.1 -13.2 1.6 -27.9 2.8 -29.4 1.9 -2.3 8.1 -2.2 8.1 0.2 0 1.4 0.7 1.7 4 1.4 3.8 -0.4 4 -0.3 4 2.4 0 1.6 -0.7 5.4 -1.5 8.4 -0.8 3 -1.5 5.6 -1.5 5.8 0 0.1 1.1 0.2 2.5 0.2 2.9 0 3.1 1.6 1.5 14 -2.1 16.2 -5.6 21.3 -15.8 23.1 -5.8 1 -6.8 1.7 -15.7 9.6 -5.2 4.6 -9.5 9 -9.5 9.6 0 0.7 0.7 2.1 1.5 3.1 2.6 3.4 1.8 8.2 -2.7 16.4 -4.9 9.1 -8.1 12.9 -12.5 14.8 -3.3 1.4 -17.4 2 -18.6 0.7z"/>
 </g>
 <g fill="#008f48">
  <path d="M293.8 45.5 c-0.3 -0.3 -27 -5.5 -59.4 -11.6 -66.2 -12.4 -58.2 -11.8 -84.4 -6.5 -28.6 5.8 -93.7 17.6 -96.7 17.6 l-3.3 0 0 -8 c0 -7.2 0.2 -8.1 2.3 -9.4 2.5 -1.6 118.3 -23.6 124.4 -23.6 2.2 0 8.2 0.9 13.4 2 5.2 1.1 16.4 3.4 24.9 4.9 63 11.8 80.8 15.3 82.7 16.1 2.9 1.2 3.7 4.6 2.8 12.5 -0.6 6.3 -0.8 6.5 -3.4 6.5 -1.5 0 -3 -0.2 -3.3 -0.5z"/>
 </g>
 <g fill="#ff141f">
  <desc>cursor-land.com</desc><path d="M50.2 68.3 l0.3 -13.8 44.5 -8.2 c24.5 -4.4 48.3 -9.1 53 -10.4 5.9 -1.5 12.4 -2.3 21.5 -2.7 14.9 -0.5 12.4 -0.8 83.5 12.6 l46.5 8.7 0.3 13.8 c0.1 7.5 0.1 13.7 -0.2 13.7 -0.2 0 -4.7 -1.6 -10 -3.5 -48.7 -17.6 -104.1 -24.1 -153.5 -18 -24.9 3.1 -54.8 10.2 -77 18.4 -4.7 1.7 -8.6 3.1 -8.8 3.1 -0.2 0 -0.2 -6.2 -0.1 -13.7z"/>
 </g>
 <g fill="#f7e700">
  <path d="M164.1 321 c-51.1 -38.5 -83 -92.1 -95.2 -159.7 -2.7 -15.2 -4.4 -62.2 -2.3 -66.4 1.6 -3.1 5.7 -5 19.8 -8.9 45 -12.4 95.9 -15.3 141 -7.9 14.7 2.4 33 6.7 45.9 10.9 8.1 2.6 10 3.6 10.7 5.6 0.6 1.4 1 8.7 1 16.2 -0.1 88.2 -36.4 164.3 -100.9 211.5 -8.4 6.3 -10.1 6.1 -20 -1.3z m17.2 -53.4 c4.4 -1.9 7.6 -5.7 12.6 -14.9 4 -7.5 4.2 -8 2.7 -10.2 -0.9 -1.4 -1.6 -4.2 -1.6 -6.4 0 -3.7 0.5 -4.4 9.5 -12.4 8.9 -7.9 9.9 -8.6 15.7 -9.6 9.3 -1.6 13.5 -6.8 15.2 -19.1 1.9 -13.1 1.9 -12.3 -0.9 -11.6 -3.6 0.9 -3.9 -0.9 -1.7 -9.7 1.9 -7.2 1.9 -7.6 0.2 -6.7 -0.9 0.5 -2.5 2.1 -3.4 3.5 -2.4 3.6 -3.7 2.2 -3 -3.3 0.6 -4.5 0.6 -4.6 -1.2 -3 -1.5 1.5 -2 4.6 -2.9 20.7 -0.7 12.8 -1.5 19.4 -2.4 20.5 -1.7 2 -3.1 1.2 -3.1 -1.8 0 -4.3 -5.6 -11.3 -13.7 -17 -4.3 -3 -9 -6.7 -10.5 -8.3 -2.8 -2.9 -6.1 -9.7 -5.2 -10.6 0.3 -0.3 2.3 -0.3 4.5 0 4.3 0.6 5.1 -0.5 1.9 -2.5 -3.2 -2 -1.6 -2.9 4.2 -2.5 l5.3 0.4 -2.5 -1.8 c-1.4 -1 -3.8 -3 -5.5 -4.5 l-3 -2.7 4.8 -0.1 c5.4 0 5.9 -0.9 1.7 -3.3 -1.6 -1 -3.5 -2.7 -4 -3.8 -1 -1.7 -0.7 -1.9 3.4 -1.9 2.5 0 4.7 -0.4 5 -0.8 0.3 -0.5 -1.5 -2.3 -3.9 -4 -2.5 -1.7 -4.5 -3.6 -4.5 -4.1 0 -0.4 1.8 -1.1 4 -1.5 4.6 -0.7 4.5 -2 -0.5 -5.5 -4.3 -2.9 -4.4 -4.1 -0.5 -4.1 4 0 3.8 -1.5 -0.5 -4.2 -4 -2.7 -4.2 -3.2 -1.6 -5 1.8 -1.3 1.6 -1.6 -3.5 -4.2 -2.9 -1.5 -7.2 -4.8 -9.4 -7.2 -2.2 -2.4 -4.4 -4.4 -4.9 -4.4 -0.5 0 -1.2 1.1 -1.5 2.5 -0.4 1.6 -2.2 3.2 -5.4 4.8 -2.6 1.3 -6.9 3.6 -9.6 5.2 -2.7 1.6 -7.2 3.4 -10 4 -6.3 1.4 -8.6 4.7 -6.4 9.2 1.5 3.2 4.7 4 8.8 2.3 2.4 -1 3.9 -0.8 9.1 1 6.7 2.3 10.1 2.1 13.3 -0.8 1.7 -1.6 1.8 -1.6 1.5 0.8 -0.3 1.7 -1.5 3 -4.1 4.2 -4.4 2.1 -5.3 3.7 -8 13.2 -4.3 15.8 -13.5 24.7 -28.1 27.5 -7.9 1.4 -9 3.8 -6.5 13.9 1.5 6.2 10.2 26.5 11.5 26.9 1.3 0.5 6.3 -7.1 6.3 -9.4 0 -1 -1.3 -3 -2.8 -4.5 -1.6 -1.4 -3.3 -4.6 -3.9 -7 -0.6 -2.3 -1.4 -5.3 -1.8 -6.4 -0.6 -2 -0.3 -2.2 3.8 -2.5 7 -0.6 8.3 0.1 15 8.1 3.4 4.1 9.2 9.7 12.7 12.4 5 3.8 6.4 5.4 6.1 7 -0.2 1.2 -0.4 5 -0.5 8.6 -0.1 5.4 0.4 7.5 2.8 12 5.2 9.9 3.4 16.2 -8.2 28.2 -5.6 5.8 -5.2 7.8 1.3 7.8 2.5 0 6 -0.6 7.8 -1.4z m-15.8 -24.6 c3.3 -1 7.3 -2.1 8.8 -2.5 3.9 -0.8 4.4 -3 1.7 -8.4 -1.7 -3.3 -2.3 -6.6 -2.4 -11.8 -0.2 -5.4 -0.7 -7.7 -2.1 -9.3 -1 -1.1 -2.2 -2 -2.7 -2 -0.4 0 -0.8 4.1 -0.8 9.1 0 12.7 -0.1 12.9 -10.8 12.8 -10.7 -0.1 -18.2 1.6 -18.2 4.1 0 4.5 13.7 11.9 19 10.3 0.8 -0.2 4.2 -1.3 7.5 -2.3z m-33.9 -83.1 c6.2 -6.2 7.6 -7.1 9.8 -6.5 1.4 0.3 3.2 1.9 4 3.4 2.6 5.1 4 5.6 7.5 2.6 1.9 -1.5 3.1 -3.5 3.1 -5 0 -2.8 -11.4 -15.4 -14 -15.4 -1 0 -6.9 4.6 -13.1 10.3 -6.3 5.6 -12.5 11 -13.8 11.9 l-2.3 1.6 3.8 2.1 c2.2 1.1 4.8 2 5.9 2.1 1.1 0 5 -3 9.1 -7.1z"/>
 </g>
 <g fill="#f3f3f3">
  <path d="M50 49.8 c0 -8.6 0.2 -9.9 1.4 -8.8 1.2 0.9 8.7 -0.2 36.3 -5.4 19.1 -3.6 40.9 -7.7 48.3 -9 7.4 -1.4 17.8 -3.4 23 -4.5 5.2 -1.1 11.8 -2.1 14.5 -2.1 2.8 0 31.6 5 64 11.1 32.5 6.1 59.8 11.2 60.8 11.2 1.5 0.1 1.7 1.3 1.7 8.9 l0 8.7 -2.7 -1.5 c-2.3 -1.2 -55.3 -11.5 -105.8 -20.6 -13.7 -2.4 -28.4 -2.1 -40 1.1 -4.4 1.1 -27.8 5.7 -52 10.1 -24.2 4.4 -45.2 8.6 -46.7 9.4 l-2.8 1.5 0 -10.1z"/>
 </g>
</svg>